<svg width="142" height="105" fill="none" xmlns="http://www.w3.org/2000/svg"><path d="M122.24 60.294c-4.964.028-9.264 1.204-12.869 2.955-1.332-2.6-2.663-4.87-2.885-6.567-.249-1.97-.555-3.174-.249-5.527.304-2.353 1.691-5.691 1.691-5.965-.028-.246-.305-1.45-3.162-1.477-2.856-.028-5.325.547-5.603 1.286a31.099 31.099 0 00-1.192 4.186c-.5 2.572-5.714 11.683-8.682 16.472-.97-1.86-1.803-3.502-1.97-4.816-.249-1.97-.554-3.174-.249-5.527.305-2.353 1.692-5.691 1.692-5.965-.028-.246-.305-1.45-3.162-1.477-2.857-.028-5.325.547-5.602 1.286-.278.739-.583 2.49-1.193 4.186-.583 1.697-7.517 16.91-9.32 20.877a84.043 84.043 0 01-2.302 4.734c-.583 1.094-.028.082-.083.191-.5.93-.777 1.45-.777 1.45v.028c-.388.684-.804 1.34-.999 1.34-.138 0-.416-1.833.056-4.35 1.026-5.28 3.522-13.517 3.495-13.818 0-.136.471-1.587-1.61-2.325-2.024-.739-2.745.492-2.912.492-.166 0-.305.438-.305.438s2.247-9.275-4.299-9.275c-4.105 0-9.763 4.405-12.565 8.427-1.775.958-5.547 2.982-9.541 5.144-1.526.821-3.107 1.697-4.604 2.49l-.305-.329C24.8 60.513 10.128 54.603 10.739 43.384c.221-4.076 1.664-14.83 28.18-27.854C60.637 4.86 78.03 7.787 81.051 14.3c4.3 9.303-9.292 26.596-31.869 29.086-8.598.957-13.12-2.326-14.257-3.558-1.192-1.286-1.359-1.34-1.803-1.094-.72.383-.277 1.532 0 2.216.666 1.724 3.44 4.789 8.155 6.32 4.133 1.342 14.229 2.08 26.433-2.571 13.674-5.226 24.353-19.728 21.219-31.85C85.739.509 64.992-3.54 45.382 3.328 33.705 7.431 21.057 13.834 11.959 22.234 1.142 32.194-.578 40.894.143 44.506 2.667 57.394 20.668 65.794 27.88 72.005c-.36.191-.694.383-.999.547-3.605 1.75-17.335 8.838-20.775 16.335-3.883 8.482.61 14.584 3.606 15.404 9.264 2.545 18.75-2.024 23.882-9.549 5.103-7.524 4.493-17.292 2.135-21.752l-.083-.164 2.829-1.642a170.717 170.717 0 015.215-2.9c-.888 2.38-1.526 5.198-1.859 9.302-.388 4.816 1.61 11.054 4.244 13.517 1.165 1.067 2.552 1.094 3.412 1.094 3.05 0 4.438-2.49 5.963-5.472 1.886-3.64 3.55-7.853 3.55-7.853s-2.08 11.41 3.606 11.41c2.08 0 4.16-2.654 5.104-4.022v.027s.055-.082.166-.273a9.16 9.16 0 00.333-.52v-.055c.832-1.422 2.69-4.678 5.464-10.069 3.578-6.95 7.018-15.65 7.018-15.65s.332 2.134 1.359 5.636c.61 2.08 1.941 4.35 2.967 6.567a109.162 109.162 0 01-1.331 1.806l.028.027a77.97 77.97 0 01-2.191 2.736c-2.83 3.338-6.213 7.142-6.657 8.236-.527 1.286-.416 2.244.61 3.01.75.547 2.08.657 3.495.547 2.552-.164 4.327-.793 5.215-1.176a18.145 18.145 0 004.493-2.326c2.774-2.025 4.465-4.898 4.3-8.728-.084-2.107-.778-4.187-1.637-6.157.25-.355.5-.711.749-1.094 4.382-6.32 7.766-13.27 7.766-13.27s.333 2.134 1.359 5.636c.527 1.779 1.581 3.721 2.524 5.637-4.105 3.31-6.685 7.141-7.572 9.659-1.637 4.651-.36 6.758 2.052 7.25 1.082.22 2.635-.273 3.8-.766a17.311 17.311 0 004.799-2.435c2.773-2.025 5.436-4.843 5.297-8.646-.083-1.751-.554-3.475-1.192-5.117 3.495-1.423 8.015-2.243 13.757-1.56 12.343 1.423 14.784 9.03 14.313 12.204-.472 3.174-3.051 4.925-3.911 5.472-.86.52-1.138.712-1.054 1.095.11.575.499.547 1.248.438 1.026-.165 6.49-2.6 6.712-8.455.333-7.525-6.906-15.734-19.749-15.652zM27.048 91.95c-4.078 4.406-9.82 6.075-12.26 4.652-2.635-1.505-1.609-7.99 3.412-12.669 3.05-2.845 7.017-5.472 9.624-7.086.583-.356 1.47-.876 2.524-1.505.167-.11.278-.164.278-.164.194-.11.416-.247.638-.383 1.858 6.676.083 12.531-4.216 17.155zm29.817-20c-1.415 3.42-4.41 12.203-6.213 11.71-1.554-.41-2.497-7.058-.306-13.625 1.11-3.311 3.468-7.251 4.854-8.784 2.247-2.462 4.688-3.283 5.298-2.27.721 1.313-2.746 10.835-3.633 12.969zm24.602 11.601c-.61.302-1.165.52-1.414.356-.194-.11.25-.52.25-.52s3.078-3.256 4.298-4.76c.694-.876 1.526-1.888 2.413-3.038v.329c0 3.94-3.827 6.566-5.547 7.633zm18.972-4.268c-.444-.328-.388-1.34 1.109-4.515.583-1.258 1.914-3.365 4.216-5.363.278.821.445 1.614.417 2.353-.028 4.926-3.578 6.759-5.742 7.525z" fill="#C4C4C4"/></svg>