<svg width="30" height="14" viewBox="0 0 30 14" fill="none" xmlns="http://www.w3.org/2000/svg">
<path d="M29.8262 6.21618L23.1597 0.139695C22.9745 -0.0107439 22.772 -0.0396886 22.5521 0.052922C22.3324 0.145654 22.222 0.313363 22.222 0.556534V4.44545H0.555542C0.393428 4.44545 0.260258 4.49744 0.156216 4.6016C0.0522341 4.70571 0 4.83888 0 5.00087V8.33412C0 8.49605 0.0519909 8.62922 0.156155 8.7332C0.260441 8.83731 0.39361 8.8893 0.555481 8.8893H22.2222V12.7782C22.2222 13.01 22.3327 13.1777 22.5522 13.2815C22.7724 13.3745 22.9749 13.3394 23.1601 13.1777L29.8266 7.03137C29.9423 6.91572 30 6.77707 30 6.6149C30 6.46482 29.9419 6.3319 29.8262 6.21618Z" fill="white"/>
</svg>
