<svg width="39" height="40" viewBox="0 0 39 40" fill="none" xmlns="http://www.w3.org/2000/svg">
<path d="M38.0311 36.4337L28.511 26.5323C30.9588 23.6225 32.3 19.9614 32.3 16.15C32.3 7.24503 25.055 0 16.15 0C7.24503 0 0 7.24503 0 16.15C0 25.055 7.24503 32.3 16.15 32.3C19.493 32.3 22.6788 31.2917 25.4025 29.3775L34.9949 39.354C35.3959 39.7704 35.9351 40 36.513 40C37.06 40 37.5789 39.7915 37.9728 39.4123C38.8098 38.6069 38.8365 37.2714 38.0311 36.4337ZM16.15 4.21304C22.7322 4.21304 28.0869 9.56781 28.0869 16.15C28.0869 22.7322 22.7322 28.0869 16.15 28.0869C9.56781 28.0869 4.21304 22.7322 4.21304 16.15C4.21304 9.56781 9.56781 4.21304 16.15 4.21304Z" fill="white"/>
</svg>
