<svg width="107" height="105" viewBox="0 0 107 105" fill="none" xmlns="http://www.w3.org/2000/svg">
<path d="M44.2462 0.753303C34.5536 2.68911 27.6347 7.97286 18.3572 20.4703C9.49495 32.4558 5.34359 44.3118 5.34359 57.7154C5.34359 62.8697 4.65168 66.7354 3.68303 67.2532C1.46896 68.5417 3.26789 47.4068 6.17385 38.1278C8.80305 29.7492 15.3129 18.4109 20.4329 13.1272C23.4773 10.0322 23.6156 9.64977 21.1248 10.8089C13.3696 14.5452 4.09816 28.5959 1.33058 40.452C-1.29863 51.9197 0.22355 68.8065 3.68303 68.0298C4.65168 67.9004 5.34359 69.3184 5.34359 71.7661C5.34359 76.5321 12.9544 87.6173 19.8794 92.6422C35.1071 103.851 56.9771 108.235 69.5756 102.439C73.8653 100.509 76.6389 96.3844 72.8967 97.8024C71.6513 98.1907 66.2545 97.9318 60.8517 97.2846C31.3649 93.9367 12.4009 71.3837 16.6907 44.8355C21.8107 13.3919 65.9717 -1.42963 87.1557 21.1234C102.66 37.4924 98.6472 61.9753 79.1237 69.8362C73.1674 72.2839 62.9274 72.1544 56.971 69.5773C45.8947 64.5525 40.6363 50.1192 46.725 40.9698C50.3228 35.8155 53.0904 35.4271 51.7066 40.3225C50.8763 43.7999 50.8763 43.7999 53.6439 41.4817C57.2418 38.3867 65.2738 39.4223 69.8403 43.4175C73.7149 46.7654 75.2371 45.9946 73.9917 41.3581C71.6392 32.4675 60.1477 27.8251 48.7946 31.0495C41.4545 33.1089 36.1961 37.3629 32.3215 44.453C28.5853 51.4137 30.1074 65.0702 35.3658 72.0309C40.3475 78.8621 51.7006 85.1755 60.4245 86.3347C80.6339 88.7824 103.617 72.5428 103.617 55.6619C103.617 40.7109 92.8173 17.3871 81.3258 7.5904C74.2865 1.65942 56.5679 -1.56495 44.2462 0.753303ZM96.024 21.1175C100.314 27.8193 102.113 31.5555 104.471 40.0637L106.408 46.5065L105.578 40.0637C104.61 32.7206 101.012 24.9832 96.024 19.4465L92.4262 15.5807L96.024 21.1175Z" fill="#C4C4C4"/>
<path d="M46.1834 21.2476C43.139 22.5361 39.8179 24.4719 38.7109 25.7605C37.0503 27.5669 37.7422 27.4374 42.8623 25.2427C54.2154 20.4768 65.2857 22.5361 74.148 31.1737C84.3941 40.9704 84.9476 52.0498 75.6702 60.9463C72.0723 64.4237 71.6572 65.2003 73.7329 65.2003C75.1167 65.2003 78.9913 62.7526 82.18 59.6577C86.7465 55.4036 88.4071 52.8265 89.099 48.443C90.7595 37.746 84.2557 26.4077 73.7329 21.377C66.5372 18.0232 53.9386 17.8996 46.1834 21.2476Z" fill="#C4C4C4"/>
</svg>
