<svg width="142" height="105" viewBox="0 0 142 105" fill="none" xmlns="http://www.w3.org/2000/svg">
<path d="M122.24 60.2939C117.276 60.3216 112.976 61.4979 109.371 63.2493C108.039 60.6499 106.708 58.3786 106.486 56.6825C106.237 54.7124 105.931 53.5083 106.237 51.1554C106.541 48.8021 107.928 45.4639 107.928 45.1903C107.9 44.9441 107.623 43.7402 104.766 43.7128C101.91 43.6854 99.4408 44.26 99.1634 44.9988C98.886 45.7376 98.3313 47.434 97.9707 49.1851C97.4715 51.7571 92.2569 60.8685 89.2891 65.6568C88.3183 63.7962 87.4862 62.1545 87.3195 60.8409C87.0702 58.8711 86.7648 57.667 87.0702 55.3141C87.3753 52.9608 88.7621 49.6229 88.7621 49.3493C88.7344 49.103 88.457 47.8991 85.6004 47.8718C82.7432 47.8444 80.2749 48.419 79.9975 49.1578C79.7202 49.8965 79.4151 51.6477 78.8049 53.3441C78.2221 55.0405 71.2879 70.2536 69.485 74.221C68.5697 76.2458 67.7656 77.8601 67.1829 78.9546C66.6004 80.0491 67.1551 79.0367 67.0997 79.1461C66.6004 80.0764 66.323 80.5963 66.323 80.5963V80.6239C65.9347 81.308 65.5187 81.9644 65.3242 81.9644C65.1855 81.9644 64.9082 80.1311 65.3797 77.6141C66.406 72.3331 68.9023 64.0975 68.8748 63.7965C68.8748 63.6597 69.3461 62.2093 67.2658 61.4708C65.241 60.732 64.5201 61.9633 64.3534 61.9633C64.187 61.9633 64.0483 62.4011 64.0483 62.4011C64.0483 62.4011 66.295 53.1257 59.7491 53.1257C55.6441 53.1257 49.9858 57.531 47.1844 61.5531C45.4092 62.5108 41.637 64.5353 37.6429 66.6971C36.1174 67.518 34.5364 68.3935 33.0386 69.187L32.7338 68.8581C24.801 60.5128 10.1283 54.6027 10.7385 43.3845C10.9604 39.3076 12.4027 28.5544 38.9193 15.5303C60.6373 4.85926 78.0282 7.78696 81.0513 14.299C85.3505 23.602 71.7594 40.8945 49.182 43.3845C40.5836 44.3421 36.0622 41.0587 34.9253 39.8274C33.7326 38.5414 33.5661 38.4867 33.1224 38.733C32.4012 39.116 32.845 40.2652 33.1224 40.9493C33.788 42.673 36.5617 45.7376 41.277 47.2698C45.4095 48.6105 55.506 49.3493 67.7101 44.6978C81.3844 39.4717 92.0631 24.9701 88.9288 12.8489C85.7391 0.508761 64.9919 -3.54076 45.382 3.32701C33.7046 7.43126 21.0566 13.8339 11.9589 22.2339C1.14155 32.1935 -0.578128 40.8945 0.143029 44.5063C2.66735 57.3936 20.6683 65.7936 27.8798 72.0047C27.5192 72.196 27.1864 72.3875 26.8813 72.552C23.2755 74.3028 9.5458 81.3898 6.10644 88.8866C2.22329 97.3687 6.71665 103.471 9.71222 104.291C18.9763 106.836 28.4623 102.267 33.5936 94.7423C38.6969 87.2178 38.087 77.4497 35.7293 72.9898L35.6459 72.8256L38.475 71.1839C40.3059 70.1168 42.1088 69.1318 43.6895 68.2833C42.8022 70.6637 42.164 73.482 41.8314 77.5862C41.4431 82.4022 43.4402 88.6403 46.0752 91.1029C47.2401 92.1697 48.627 92.1974 49.4868 92.1974C52.5378 92.1974 53.9247 89.7072 55.4502 86.725C57.3363 83.0859 59.0005 78.8722 59.0005 78.8722C59.0005 78.8722 56.9203 90.282 62.6063 90.282C64.6866 90.282 66.7668 87.628 67.7099 86.2599V86.2872C67.7099 86.2872 67.7653 86.2052 67.8763 86.0136C67.9927 85.8439 68.1037 85.6706 68.2091 85.494V85.4393C69.0412 84.0165 70.8996 80.7605 73.6733 75.3702C77.251 68.4204 80.6907 59.7194 80.6907 59.7194C80.6907 59.7194 81.0235 61.8536 82.0498 65.3559C82.6597 67.4356 83.9911 69.7064 85.0173 71.9227C84.1852 73.0718 83.686 73.7288 83.686 73.7288L83.7137 73.7562C83.0483 74.6317 82.2991 75.5623 81.5228 76.4923C78.6936 79.8304 75.3097 83.634 74.866 84.7284C74.339 86.0142 74.4499 86.9718 75.4762 87.7382C76.2251 88.2855 77.5564 88.3946 78.971 88.2855C81.5228 88.121 83.2979 87.492 84.1855 87.1086C85.5724 86.6161 87.1534 85.8774 88.6789 84.7829C91.4526 82.7584 93.1445 79.8854 92.9781 76.0548C92.8949 73.948 92.2015 71.8685 91.3416 69.8984C91.5913 69.5427 91.8412 69.1868 92.0905 68.804C96.4729 62.4832 99.8568 55.5336 99.8568 55.5336C99.8568 55.5336 100.19 57.6678 101.216 61.1701C101.743 62.9486 102.797 64.8915 103.74 66.8068C99.6349 70.1176 97.0554 73.9482 96.1678 76.4655C94.5314 81.117 95.8072 83.2238 98.2203 83.7163C99.3018 83.9352 100.855 83.4427 102.02 82.9502C103.462 82.4851 105.21 81.6913 106.819 80.515C109.592 78.4903 112.255 75.672 112.116 71.8688C112.033 70.1176 111.562 68.3938 110.924 66.7521C114.419 65.3293 118.939 64.5085 124.681 65.1925C137.024 66.6153 139.465 74.2218 138.994 77.3958C138.522 80.57 135.943 82.3209 135.083 82.8681C134.223 83.388 133.945 83.5798 134.029 83.9626C134.139 84.5375 134.528 84.5098 135.277 84.4007C136.303 84.2362 141.767 81.8013 141.989 75.9462C142.322 68.4206 135.083 60.2121 122.24 60.2939ZM27.0477 91.9514C22.9704 96.3566 17.2289 98.0257 14.7881 96.6029C12.1531 95.098 13.179 88.6133 18.1997 83.9344C21.2507 81.0888 25.2171 78.4621 27.8244 76.8477C28.4068 76.4921 29.2944 75.9725 30.3484 75.3429C30.5148 75.2337 30.6258 75.1787 30.6258 75.1787C30.8199 75.0692 31.0418 74.9324 31.2637 74.7956C33.1221 81.4719 31.3469 87.3273 27.0477 91.9514ZM56.8648 71.95C55.4502 75.3702 52.4546 84.1533 50.6517 83.6608C49.0982 83.2504 48.1554 76.6015 50.3464 70.0347C51.4558 66.7237 53.8135 62.7839 55.2003 61.2513C57.4473 58.7888 59.8878 57.9679 60.4983 58.9803C61.2195 60.2939 57.7524 69.8158 56.8648 71.95ZM81.4673 83.5514C80.8571 83.8526 80.3024 84.0712 80.0527 83.9073C79.8586 83.7979 80.3021 83.3875 80.3021 83.3875C80.3021 83.3875 83.3809 80.1314 84.6013 78.6265C85.2947 77.7512 86.1268 76.7389 87.0144 75.5894V75.9177C87.0147 79.8575 83.187 82.4842 81.4673 83.5514ZM100.439 79.2829C99.9952 78.9546 100.051 77.9422 101.548 74.7683C102.131 73.5096 103.462 71.4028 105.764 69.4054C106.042 70.2262 106.209 71.0194 106.181 71.7585C106.153 76.6836 102.603 78.5168 100.439 79.2829Z" fill="#C4C4C4"/>
</svg>
