<svg width="140" height="105" viewBox="0 0 140 105" fill="none" xmlns="http://www.w3.org/2000/svg">
<path fill-rule="evenodd" clip-rule="evenodd" d="M108.692 17.1183C99.1282 6.60188 85.3349 0 70 0C54.6651 0 40.8718 6.60188 31.308 17.1183H108.691H108.692ZM31.3086 87.4508C40.8723 97.9672 54.6656 104.569 70.0005 104.569C85.3355 104.569 99.1287 97.9672 108.692 87.4508H31.3086ZM23.2225 21.5638C10.3972 21.5638 0 31.961 0 44.7869V59.7822C0 72.6075 10.3972 83.0047 23.2225 83.0047H116.777C129.603 83.0047 140 72.6075 140 59.7822V44.7869C140 31.961 129.603 21.5638 116.777 21.5638H23.2225ZM137.611 44.5216C137.611 33.1614 128.402 23.9526 117.043 23.9526H93.8197C82.46 23.9526 73.2512 33.1614 73.2512 44.5211V60.1136C73.2512 71.4738 64.0423 80.6827 52.6827 80.6827H117.042C128.402 80.6827 137.611 71.4733 137.611 60.1136V44.5211L137.611 44.5216ZM56.9297 45.914V67.8765H63.5644V45.914H56.9297ZM56.2658 38.9807C56.2658 40.0277 56.6817 41.0319 57.4221 41.7723C58.1625 42.5127 59.1666 42.9286 60.2137 42.9286C61.2607 42.9286 62.2649 42.5127 63.0053 41.7723C63.7456 41.0319 64.1616 40.0277 64.1616 38.9807C64.1616 37.9337 63.7456 36.9295 63.0053 36.1891C62.2649 35.4487 61.2607 35.0328 60.2137 35.0328C59.1666 35.0328 58.1625 35.4487 57.4221 36.1891C56.6817 36.9295 56.2658 37.9337 56.2658 38.9807ZM12.0094 35.8296L20.5685 67.8765H26.0755L32.5123 45.7155L38.9479 67.877H44.654L53.0808 35.8296H46.6441L41.7348 56.9291L35.6305 35.8296H29.7254L23.6206 56.3981L18.9766 35.8296H12.0094ZM83.8009 35.8296V67.8765H90.8337V55.3366H106.759V48.8343H90.8337V42.332H107.82V35.8296H83.8009ZM112.597 45.9145V67.877H119.232V45.9145H112.597ZM112 38.9145C112 39.9616 112.416 40.9657 113.156 41.7061C113.897 42.4465 114.901 42.8624 115.948 42.8624C116.995 42.8624 117.999 42.4465 118.739 41.7061C119.48 40.9657 119.896 39.9616 119.896 38.9145C119.896 37.8675 119.48 36.8633 118.739 36.123C117.999 35.3826 116.995 34.9666 115.948 34.9666C114.901 34.9666 113.897 35.3826 113.156 36.123C112.416 36.8633 112 37.8675 112 38.9145Z" fill="#C4C4C4"/>
</svg>
