<svg width="154" height="105" viewBox="0 0 154 105" fill="none" xmlns="http://www.w3.org/2000/svg">
<path d="M152.742 49.0606C151.648 47.9669 137.613 30.2856 135.243 27.3691C132.691 24.4526 131.597 24.9994 129.957 25.1817C128.316 25.364 110.635 28.4628 108.63 28.645C106.625 29.0096 105.349 29.7387 106.625 31.5616C107.718 33.2021 119.384 49.6074 121.936 53.4354L75.4545 64.5545L38.6335 2.76104C37.1753 0.573664 36.8107 -0.155463 33.5296 0.0268186C30.2485 0.2091 4.5468 2.39648 2.72398 2.39648C0.901166 2.57876 -1.10393 3.30789 0.718884 7.68265C2.5417 12.0574 31.7068 74.7623 32.4359 76.5851C33.1651 78.408 35.3524 81.3245 40.2741 80.2308C45.3779 78.9548 62.877 74.3978 72.5379 71.8458C77.6418 80.9599 87.8496 99.5526 89.8547 102.287C92.4067 105.932 94.2295 105.203 98.0574 104.11C101.156 103.198 145.815 87.1575 147.82 86.2461C149.825 85.3347 151.101 84.7878 149.643 82.7827C148.549 81.3245 136.883 65.466 130.686 57.2633C134.878 56.1696 150.008 52.1594 151.648 51.6125C153.471 51.0657 153.836 50.1543 152.742 49.0606ZM68.3455 66.3774C67.7986 66.5596 41.7323 72.7572 40.4563 73.1218C38.9981 73.4863 38.9981 73.3041 38.9981 72.7572C38.6335 72.2104 8.01016 8.77634 7.46331 8.04721C7.09875 7.31809 7.09875 6.58896 7.46331 6.58896C7.82788 6.58896 32.0714 4.40158 32.8005 4.40158C33.7119 4.40158 33.5296 4.58386 33.8942 5.13071C33.8942 5.13071 67.9809 64.0077 68.5277 64.9191C69.2569 65.8305 68.8923 66.1951 68.3455 66.3774ZM141.623 80.0485C141.987 80.7776 142.534 81.1422 141.076 81.5067C139.8 82.0536 97.146 96.4538 96.2346 96.8184C95.3232 97.183 94.7763 97.3652 93.6826 95.7247C92.5889 94.0842 78.7355 70.2053 78.7355 70.2053L124.124 58.357C125.217 57.9924 125.582 57.8101 126.311 58.9038C127.04 60.1798 141.258 79.5016 141.623 80.0485ZM144.539 47.9669C143.446 48.1492 126.858 52.3417 126.858 52.3417L113.187 33.7489C112.822 33.2021 112.458 32.6552 113.369 32.473C114.28 32.2907 129.774 29.5565 130.504 29.3742C131.233 29.1919 131.78 29.0096 132.691 30.2856C133.602 31.3793 145.268 46.3264 145.815 46.8732C146.362 47.4201 145.633 47.7846 144.539 47.9669Z" fill="#C4C4C4"/>
</svg>
