<svg width="14" height="10" viewBox="0 0 14 10" fill="none" xmlns="http://www.w3.org/2000/svg">
<path d="M7 0C3.91208 0 1.25071 1.82031 0.0281607 4.44714C-0.0093869 4.52674 -0.0093869 4.61986 0.0281607 4.70096C1.25071 7.32778 3.9121 9.1481 7 9.1481C10.0879 9.1481 12.7493 7.32779 13.9718 4.70096C14.0094 4.62136 14.0094 4.52824 13.9718 4.44714C12.7493 1.82031 10.0879 0 7 0ZM7 7.73032C5.25629 7.73032 3.8445 6.31701 3.8445 4.5748C3.8445 2.83109 5.25779 1.4193 7 1.4193C8.74371 1.4193 10.1555 2.83259 10.1555 4.5748C10.1555 6.31701 8.74221 7.73032 7 7.73032Z" fill="#C4C4C4"/>
<path d="M7.00004 6.59335C8.11569 6.59335 9.0201 5.68893 9.0201 4.57328C9.0201 3.45763 8.11569 2.55322 7.00004 2.55322C5.88439 2.55322 4.97998 3.45763 4.97998 4.57328C4.97998 5.68893 5.88439 6.59335 7.00004 6.59335Z" fill="#C4C4C4"/>
</svg>
