<svg width="40" height="40" viewBox="0 0 40 40" fill="none" xmlns="http://www.w3.org/2000/svg">
<path d="M20.7587 13.7781C20.7587 11.0057 19.1059 6.69434 15.9194 6.69434C14.9177 6.69434 13.8444 7.19439 13.2281 7.96492C12.5742 8.77475 12.3843 9.81086 12.3843 10.8151C12.3843 13.3931 13.8812 17.6656 17.1868 17.6656C18.1464 17.6656 19.1804 17.206 19.7983 16.5894C20.6818 15.701 20.7587 14.4717 20.7587 13.7781Z" fill="white" fill-opacity="0.25"/>
<path d="M18.6832 23.9032C18.3771 23.8647 18.1848 23.8647 17.801 23.8647C17.4544 23.8647 15.3793 23.9405 13.7666 24.4831C12.922 24.7891 10.4639 25.714 10.4639 28.447C10.4639 31.1814 13.1147 33.1468 17.2248 33.1468C20.9138 33.1468 22.8735 31.3717 22.8735 28.988C22.8731 27.0185 21.6054 25.9828 18.6832 23.9032Z" fill="white" fill-opacity="0.25"/>
<path d="M20 0C8.95427 0 0 8.95427 0 20C0 31.0457 8.95427 40 20 40C31.0457 40 40 31.0457 40 20C40 8.95427 31.0457 0 20 0ZM15.3408 34.7601C9.769 34.7601 7.08133 32.1052 7.08133 29.2542C7.08133 27.8691 7.77166 25.9069 10.0387 24.5586C12.4194 23.0952 15.6485 22.9041 17.3782 22.7851C16.8385 22.0927 16.2259 21.3614 16.2259 20.1682C16.2259 19.5147 16.4182 19.1292 16.6081 18.6668C16.185 18.7061 15.7643 18.7437 15.3796 18.7437C11.3088 18.7437 9.00379 15.7001 9.00379 12.6977C9.00379 10.9291 9.80951 8.96409 11.4611 7.53964C13.652 5.73013 16.6457 5.23908 18.722 5.23908H26.2916L23.7934 6.8088H21.4134C22.2965 7.53964 24.1379 9.07949 24.1379 12.007C24.1379 14.8538 22.5264 16.205 20.9138 17.474C20.4133 17.9736 19.8367 18.5125 19.8367 19.3608C19.8367 20.2058 20.4137 20.6674 20.8352 21.0169L22.2195 22.0923C23.9104 23.5159 25.4474 24.8254 25.4465 27.4844C25.4461 31.1047 21.9478 34.7601 15.3408 34.7601ZM31.9202 19.5294V23.4021H30.019V19.5294H26.1753V17.6074H30.019V13.7584H31.9202V17.6074H35.7823V19.5294H31.9202Z" fill="white" fill-opacity="0.25"/>
</svg>
