<svg width="20" height="20" viewBox="0 0 20 20" fill="none" xmlns="http://www.w3.org/2000/svg">
<path d="M1.95 18.2458L1.75 18.0447C0.749999 17.0391 0.749999 15.4302 1.75 14.4246L6.25003 9.89942C7.25003 8.89384 8.85004 8.89384 9.85004 9.89942L10.05 10.1005C11.0501 11.1061 11.0501 12.7151 10.05 13.7207L5.55002 18.2458C4.65002 19.2514 2.95001 19.2514 1.95 18.2458Z" stroke="#787878" stroke-width="2" stroke-miterlimit="10" stroke-linecap="round" stroke-linejoin="round"/>
<path d="M10.15 10.1005L9.94995 9.89941C8.94995 8.89382 8.94995 7.28489 9.94995 6.27931L14.45 1.75419C15.45 0.748604 17.05 0.748604 18.05 1.75419L18.25 1.9553C19.25 2.96089 19.25 4.56982 18.25 5.5754L13.75 10.1005C12.75 11.1061 11.15 11.1061 10.15 10.1005Z" stroke="#787878" stroke-width="2" stroke-miterlimit="10" stroke-linecap="round" stroke-linejoin="round"/>
</svg>
