<svg width="23" height="10" viewBox="0 0 23 10" fill="none" xmlns="http://www.w3.org/2000/svg">
<path d="M0.628442 5.33747L5.62874 9.89522C5.76767 10.0081 5.91955 10.0298 6.08452 9.96031C6.24931 9.89075 6.33205 9.76496 6.33205 9.58257L6.33205 6.66563L22.5833 6.66563C22.7049 6.66563 22.8048 6.62663 22.8828 6.5485C22.9608 6.47042 23 6.37053 23 6.24903L23 3.74888C23 3.62742 22.961 3.52753 22.8829 3.44954C22.8047 3.37146 22.7048 3.33246 22.5834 3.33246L6.33196 3.33246L6.33196 0.415571C6.33196 0.241706 6.24908 0.115915 6.08439 0.038013C5.91928 -0.0317244 5.7674 -0.005361 5.62847 0.115915L0.628168 4.72603C0.541372 4.81278 0.498088 4.91677 0.498088 5.03841C0.498088 5.15097 0.541647 5.25068 0.628442 5.33747Z" fill="#E5E5E5"/>
</svg>
