<svg width="30" height="30" viewBox="0 0 30 30" fill="none" xmlns="http://www.w3.org/2000/svg">
<path d="M15 30C6.74068 30 0 23.2588 0 15C0 6.74068 6.74121 0 15 0C23.2593 0 30 6.74115 30 15C30 23.2593 23.2588 30 15 30ZM15 1.75781C7.69822 1.75781 1.75781 7.69822 1.75781 15C1.75781 22.3018 7.69822 28.2422 15 28.2422C22.3018 28.2422 28.2422 22.3018 28.2422 15C28.2422 7.69822 22.3018 1.75781 15 1.75781Z" fill="white" fill-opacity="0.25"/>
<path d="M15 18.5156C13.0615 18.5156 11.4844 16.9385 11.4844 15C11.4844 13.0615 13.0615 11.4844 15 11.4844C16.9385 11.4844 18.5156 13.0615 18.5156 15C18.5156 16.9385 16.9385 18.5156 15 18.5156ZM15 13.2422C14.0307 13.2422 13.2422 14.0307 13.2422 15C13.2422 15.9693 14.0307 16.7578 15 16.7578C15.9693 16.7578 16.7578 15.9693 16.7578 15C16.7578 14.0307 15.9693 13.2422 15 13.2422Z" fill="white" fill-opacity="0.25"/>
<path d="M17.8942 9.46907L15 6.57495L12.1058 9.46907L10.8629 8.22618L15 4.08905L19.1371 8.22618L17.8942 9.46907Z" fill="white" fill-opacity="0.25"/>
<path d="M15 25.9109L10.8629 21.7738L12.1058 20.5309L15 23.425L17.8942 20.5309L19.1371 21.7738L15 25.9109Z" fill="white" fill-opacity="0.25"/>
</svg>
