<svg width="60" height="60" viewBox="0 0 60 60" fill="none" xmlns="http://www.w3.org/2000/svg">
<path d="M30 60C13.4814 60 0 46.5176 0 30C0 13.4814 13.4824 0 30 0C46.5186 0 60 13.4823 60 30C60 46.5186 46.5177 60 30 60ZM30 3.51562C15.3964 3.51562 3.51562 15.3964 3.51562 30C3.51562 44.6036 15.3964 56.4844 30 56.4844C44.6036 56.4844 56.4844 44.6036 56.4844 30C56.4844 15.3964 44.6036 3.51562 30 3.51562Z" fill="white" fill-opacity="0.25"/>
<path d="M30 37.0312C26.123 37.0312 22.9688 33.877 22.9688 30C22.9688 26.123 26.123 22.9688 30 22.9688C33.877 22.9688 37.0312 26.123 37.0312 30C37.0312 33.877 33.877 37.0312 30 37.0312ZM30 26.4844C28.0615 26.4844 26.4844 28.0615 26.4844 30C26.4844 31.9385 28.0615 33.5156 30 33.5156C31.9385 33.5156 33.5156 31.9385 33.5156 30C33.5156 28.0615 31.9385 26.4844 30 26.4844Z" fill="white" fill-opacity="0.25"/>
<path d="M35.7884 18.9382L30 13.15L24.2117 18.9382L21.7259 16.4524L30 8.17816L38.2742 16.4524L35.7884 18.9382Z" fill="white" fill-opacity="0.25"/>
<path d="M30 51.8219L21.7259 43.5476L24.2117 41.0618L30 46.8501L35.7884 41.0618L38.2742 43.5476L30 51.8219Z" fill="white" fill-opacity="0.25"/>
</svg>
