<svg width="14" height="14" viewBox="0 0 14 14" fill="none" xmlns="http://www.w3.org/2000/svg">
<path d="M1.02084 0.155559H2.47918C3.0421 0.155559 3.50002 0.644003 3.50002 1.24445V8.4C3.50002 9.00045 3.0421 9.48889 2.47918 9.48889H1.02084C0.457919 9.48889 0 9.00045 0 8.4V1.24445C0 0.644003 0.457919 0.155559 1.02084 0.155559Z" fill="#C4C4C4"/>
<path d="M7.45566 14C6.87232 14 6.58066 13.6889 6.58066 12.1333C6.58066 10.6549 5.2384 9.46524 4.37506 8.85236V1.14427C5.30898 0.6832 7.17857 -9.53674e-07 10.0807 -9.53674e-07H11.014C12.1515 -9.53674e-07 13.1199 0.871111 13.3124 2.06578L13.9657 6.11022C14.2107 7.63467 13.114 9.02222 11.6673 9.02222H8.914C8.914 9.02222 9.3515 9.95556 9.3515 11.5111C9.3515 13.3778 8.039 14 7.45566 14Z" fill="#C4C4C4"/>
</svg>
