<svg width="14" height="14" viewBox="0 0 14 14" fill="none" xmlns="http://www.w3.org/2000/svg">
<path d="M1.02084 13.8444H2.47918C3.0421 13.8444 3.50002 13.356 3.50002 12.7556V5.6C3.50002 4.99955 3.0421 4.51111 2.47918 4.51111H1.02084C0.457919 4.51111 0 4.99955 0 5.6V12.7556C0 13.356 0.457919 13.8444 1.02084 13.8444Z" fill="#C4C4C4"/>
<path d="M7.45566 0C6.87232 0 6.58066 0.311111 6.58066 1.86667C6.58066 3.34507 5.2384 4.53476 4.37506 5.14764V12.8557C5.30898 13.3168 7.17857 14 10.0807 14H11.014C12.1515 14 13.1199 13.1289 13.3124 11.9342L13.9657 7.88978C14.2107 6.36533 13.114 4.97778 11.6673 4.97778H8.914C8.914 4.97778 9.3515 4.04444 9.3515 2.48889C9.3515 0.622222 8.039 0 7.45566 0Z" fill="#C4C4C4"/>
</svg>
