<svg width="18" height="20" viewBox="0 0 18 20" fill="none" xmlns="http://www.w3.org/2000/svg">
<path d="M17.6143 2.7991C17.5784 2.54124 17.3928 2.32912 17.142 2.2594L9.10364 0.0239217C8.98904 -0.00797391 8.86799 -0.00797391 8.75331 0.0239217L0.714912 2.2594C0.464104 2.32912 0.278569 2.54115 0.242665 2.7991C0.196041 3.13436 -0.867582 11.0556 1.86054 14.9962C4.58544 18.9321 8.60525 19.9407 8.77501 19.9818C8.82547 19.994 8.87688 20 8.92847 20C8.98006 20 9.03148 19.9939 9.08194 19.9818C9.25179 19.9407 13.2716 18.9321 15.9964 14.9962C18.7245 11.0557 17.6609 3.13444 17.6143 2.7991ZM14.1122 7.42362L8.62921 12.9066C8.50163 13.0342 8.33431 13.0981 8.16707 13.0981C7.99984 13.0981 7.83252 13.0343 7.70494 12.9066L4.31485 9.51653C4.19223 9.394 4.12339 9.22773 4.12339 9.05439C4.12339 8.88106 4.19232 8.71478 4.31485 8.59226L4.98797 7.91914C5.24322 7.66397 5.65708 7.66388 5.91224 7.91914L8.16707 10.174L12.5148 5.82614C12.6373 5.70352 12.8036 5.63468 12.977 5.63468C13.1503 5.63468 13.3166 5.70352 13.4391 5.82614L14.1122 6.49926C14.3675 6.75451 14.3675 7.16837 14.1122 7.42362Z" fill="white"/>
</svg>
