<svg width="140" height="105" fill="none" xmlns="http://www.w3.org/2000/svg"><path fill-rule="evenodd" clip-rule="evenodd" d="M108.692 17.118C99.128 6.602 85.335 0 70 0S40.872 6.602 31.308 17.118h77.384zM31.309 87.451C40.872 97.967 54.666 104.569 70 104.569c15.334 0 29.128-6.602 38.691-17.118H31.309zm-8.087-65.887C10.398 21.564 0 31.96 0 44.787v14.995c0 12.826 10.397 23.223 23.223 23.223h93.554c12.826 0 23.223-10.397 23.223-23.223V44.787c0-12.826-10.397-23.223-23.223-23.223H23.222zm114.389 22.958c0-11.36-9.209-20.57-20.568-20.57H93.82c-11.36 0-20.569 9.21-20.569 20.57v15.592c0 11.36-9.209 20.569-20.568 20.569h64.359c11.36 0 20.569-9.21 20.569-20.57V44.522zM56.93 45.914v21.962h6.634V45.914H56.93zm-.664-6.933a3.948 3.948 0 107.896 0 3.948 3.948 0 00-7.896 0zM12.009 35.83l8.56 32.046h5.507l6.436-22.16 6.436 22.161h5.706l8.427-32.047h-6.437l-4.91 21.1-6.104-21.1h-5.905l-6.104 20.568-4.644-20.568h-6.968zm71.792 0v32.046h7.033v-12.54h15.925v-6.502H90.834v-6.502h16.986V35.83H83.8zm28.796 10.084v21.963h6.635V45.915h-6.635zm-.597-7a3.95 3.95 0 007.896 0 3.946 3.946 0 00-3.948-3.947A3.95 3.95 0 00112 38.914z" fill="#C4C4C4"/></svg>