<svg width="154" height="105" fill="none" xmlns="http://www.w3.org/2000/svg"><path d="M152.742 49.06c-1.094-1.093-15.129-18.774-17.499-21.69-2.552-2.917-3.646-2.37-5.286-2.188-1.641.182-19.322 3.28-21.327 3.463-2.005.365-3.281 1.094-2.005 2.917 1.093 1.64 12.759 18.045 15.311 21.873l-46.482 11.12L38.634 2.76C37.174.574 36.81-.155 33.53.027c-3.282.182-28.983 2.37-30.806 2.37-1.823.182-3.828.91-2.005 5.286 1.823 4.374 30.988 67.08 31.717 68.902.73 1.823 2.916 4.74 7.838 3.646 5.104-1.276 22.603-5.833 32.264-8.385 5.104 9.114 15.312 27.707 17.317 30.441 2.552 3.645 4.374 2.916 8.202 1.823 3.099-.912 47.758-16.953 49.763-17.864 2.005-.911 3.281-1.458 1.823-3.463-1.094-1.459-12.76-17.317-18.957-25.52 4.192-1.093 19.322-5.104 20.962-5.65 1.823-.547 2.188-1.459 1.094-2.552zM68.346 66.378c-.547.183-26.614 6.38-27.89 6.745-1.458.364-1.458.182-1.458-.365-.364-.547-30.988-63.98-31.535-64.71-.364-.729-.364-1.458 0-1.458.365 0 24.608-2.187 25.337-2.187.912 0 .73.182 1.094.729 0 0 34.087 58.877 34.634 59.788.729.912.364 1.276-.183 1.458zm73.277 13.672c.364.729.911 1.093-.547 1.458-1.276.547-43.93 14.947-44.841 15.311-.912.365-1.459.547-2.552-1.093-1.094-1.64-14.948-25.52-14.948-25.52l45.389-11.848c1.093-.365 1.458-.547 2.187.547.729 1.276 14.947 20.598 15.312 21.145zm2.916-32.082c-1.093.182-17.681 4.375-17.681 4.375L113.187 33.75c-.365-.547-.729-1.094.182-1.276.911-.182 16.405-2.916 17.135-3.099.729-.182 1.276-.364 2.187.912.911 1.093 12.577 16.04 13.124 16.587.547.547-.182.912-1.276 1.094z" fill="#C4C4C4"/></svg>