<svg width="40" height="40" fill="none" xmlns="http://www.w3.org/2000/svg"><path d="M20.759 13.778c0-2.772-1.653-7.084-4.84-7.084-1.001 0-2.075.5-2.69 1.27-.655.81-.845 1.847-.845 2.851 0 2.578 1.497 6.85 4.803 6.85.96 0 1.993-.459 2.611-1.076.884-.888.96-2.117.96-2.81zm-2.076 10.125c-.306-.038-.498-.038-.882-.038-.347 0-2.422.076-4.034.618-.845.306-3.303 1.231-3.303 3.964 0 2.734 2.65 4.7 6.76 4.7 3.69 0 5.65-1.775 5.65-4.159 0-1.97-1.269-3.005-4.19-5.085z" fill="#fff" fill-opacity=".25"/><path d="M20 0C8.954 0 0 8.954 0 20s8.954 20 20 20 20-8.954 20-20S31.046 0 20 0zm-4.66 34.76c-5.571 0-8.259-2.655-8.259-5.506 0-1.385.69-3.347 2.958-4.695 2.38-1.464 5.61-1.655 7.34-1.774-.54-.692-1.153-1.424-1.153-2.617 0-.653.192-1.039.382-1.501-.423.04-.844.077-1.228.077-4.071 0-6.376-3.044-6.376-6.046 0-1.769.806-3.734 2.457-5.158 2.191-1.81 5.185-2.3 7.261-2.3h7.57l-2.499 1.569h-2.38c.884.73 2.725 2.27 2.725 5.198 0 2.847-1.612 4.198-3.224 5.467-.5.5-1.077 1.038-1.077 1.887 0 .845.577 1.306.998 1.656l1.384 1.075c1.691 1.424 3.228 2.733 3.227 5.392 0 3.62-3.498 7.276-10.105 7.276zm16.58-15.23v3.872h-1.9V19.53h-3.844v-1.922h3.844v-3.849h1.901v3.85h3.862v1.921H31.92z" fill="#fff" fill-opacity=".25"/></svg>