<svg width="107" height="105" fill="none" xmlns="http://www.w3.org/2000/svg"><path d="M44.246.753C34.554 2.69 27.635 7.973 18.357 20.47 9.495 32.456 5.344 44.312 5.344 57.715c0 5.155-.692 9.02-1.661 9.538-2.214 1.289-.415-19.846 2.49-29.125 2.63-8.379 9.14-19.717 14.26-25 3.044-3.096 3.183-3.478.692-2.32C13.37 14.546 4.098 28.597 1.33 40.453-1.3 51.92.224 68.807 3.683 68.03c.969-.13 1.66 1.288 1.66 3.736 0 4.766 7.611 15.851 14.536 20.876 15.228 11.209 37.098 15.593 49.697 9.797 4.29-1.93 7.063-6.055 3.32-4.637-1.245.389-6.642.13-12.044-.517C31.365 93.937 12.4 71.384 16.69 44.835 21.81 13.393 65.97-1.43 87.156 21.124c15.504 16.37 11.491 40.852-8.032 48.713-5.957 2.448-16.197 2.318-22.153-.259C45.895 64.552 40.636 50.12 46.725 40.97c3.598-5.154 6.365-5.543 4.982-.648-.83 3.478-.83 3.478 1.937 1.16 3.598-3.095 11.63-2.06 16.196 1.935 3.875 3.348 5.397 2.578 4.152-2.059-2.353-8.89-13.844-13.533-25.197-10.308-7.34 2.059-12.599 6.313-16.474 13.403-3.736 6.96-2.214 20.617 3.045 27.578 4.981 6.831 16.335 13.144 25.059 14.304 20.209 2.447 43.192-13.792 43.192-30.673 0-14.951-10.8-38.275-22.291-48.072-7.04-5.93-24.758-9.155-37.08-6.837zm51.778 20.364c4.29 6.702 6.089 10.438 8.447 18.947l1.937 6.443-.83-6.443c-.968-7.343-4.566-15.08-9.554-20.617l-3.598-3.866 3.598 5.537z" fill="#C4C4C4"/><path d="M46.183 21.248c-3.044 1.288-6.365 3.224-7.472 4.512-1.66 1.807-.969 1.677 4.151-.517 11.353-4.766 22.424-2.707 31.286 5.93 10.246 9.797 10.8 20.877 1.522 29.773-3.598 3.478-4.013 4.254-1.937 4.254 1.384 0 5.258-2.447 8.447-5.542 4.566-4.254 6.227-6.831 6.919-11.215 1.66-10.697-4.843-22.035-15.366-27.066-7.196-3.354-19.794-3.477-27.55-.13z" fill="#C4C4C4"/></svg>