<svg width="60" height="60" fill="none" xmlns="http://www.w3.org/2000/svg"><path d="M30 60C13.481 60 0 46.518 0 30 0 13.481 13.482 0 30 0c16.519 0 30 13.482 30 30 0 16.519-13.482 30-30 30zm0-56.484C15.396 3.516 3.516 15.396 3.516 30c0 14.604 11.88 26.484 26.484 26.484 14.604 0 26.484-11.88 26.484-26.484 0-14.604-11.88-26.484-26.484-26.484z" fill="#fff" fill-opacity=".25"/><path d="M30 37.031A7.04 7.04 0 0122.969 30 7.04 7.04 0 0130 22.969 7.04 7.04 0 0137.031 30 7.04 7.04 0 0130 37.031zm0-10.547A3.52 3.52 0 0026.484 30 3.52 3.52 0 0030 33.516 3.52 3.52 0 0033.516 30 3.52 3.52 0 0030 26.484zm5.788-7.546L30 13.15l-5.788 5.788-2.486-2.486L30 8.178l8.274 8.274-2.486 2.486zM30 51.822l-8.274-8.274 2.486-2.486L30 46.85l5.788-5.788 2.486 2.486L30 51.822z" fill="#fff" fill-opacity=".25"/></svg>