<svg width="30" height="30" fill="none" xmlns="http://www.w3.org/2000/svg"><path d="M15 30C6.74 30 0 23.259 0 15 0 6.74 6.741 0 15 0c8.26 0 15 6.741 15 15 0 8.26-6.741 15-15 15zm0-28.242C7.698 1.758 1.758 7.698 1.758 15c0 7.302 5.94 13.242 13.242 13.242 7.302 0 13.242-5.94 13.242-13.242 0-7.302-5.94-13.242-13.242-13.242z" fill="#fff" fill-opacity=".25"/><path d="M15 18.516A3.52 3.52 0 0111.484 15 3.52 3.52 0 0115 11.484 3.52 3.52 0 0118.516 15 3.52 3.52 0 0115 18.516zm0-5.274A1.76 1.76 0 0013.242 15c0 .97.789 1.758 1.758 1.758A1.76 1.76 0 0016.758 15 1.76 1.76 0 0015 13.242zm2.894-3.772L15 6.574l-2.894 2.894-1.243-1.243L15 4.09l4.137 4.137-1.243 1.243zM15 25.91l-4.137-4.136 1.243-1.243L15 23.425l2.894-2.894 1.243 1.243L15 25.91z" fill="#fff" fill-opacity=".25"/></svg>