<svg width="18" height="20" fill="none" xmlns="http://www.w3.org/2000/svg"><path d="M17.614 2.8a.654.654 0 00-.472-.54L9.104.023a.653.653 0 00-.35 0L.713 2.259a.654.654 0 00-.471.54c-.047.335-1.11 8.257 1.618 12.197 2.724 3.936 6.744 4.945 6.914 4.986a.652.652 0 00.307 0c.17-.041 4.19-1.05 6.914-4.986 2.728-3.94 1.665-11.862 1.618-12.197zm-3.502 4.624L8.63 12.907a.652.652 0 01-.924 0l-3.39-3.39a.653.653 0 010-.925l.673-.673a.654.654 0 01.924 0l2.255 2.255 4.348-4.348a.653.653 0 01.924 0l.673.673a.654.654 0 010 .925z" fill="#fff"/></svg>